STARTFONT 2.1
FONT -Monotype-Bookman Old Style-Regular-I-Normal--36-360-75-75-P-199-iso8859-2
SIZE 36 75 75
FONTBOUNDINGBOX 54 43 -9 -9

STARTPROPERTIES 24
FOUNDRY "Monotype"
FAMILY_NAME "Bookman Old Style"
WEIGHT_NAME "Regular"
SLANT "I"
SETWIDTH_NAME "Normal"
ADD_STYLE_NAME ""
PIXEL_SIZE 36
POINT_SIZE 360
RESOLUTION_X 75
RESOLUTION_Y 75
SPACING "P"
AVERAGE_WIDTH 199
CHARSET_REGISTRY "iso8859"
CHARSET_ENCODING "2"
FACE_NAME "Bookman Old Style Italic ISO Latin2"
_DEC_DEVICE_FONTNAMES "PS=bookmanoldstyle-it-lat2"
COPYRIGHT "Copyright (c) 1993 Monotype Typography Ltd."
CAP_HEIGHT 29
X_HEIGHT 20
WEIGHT 10
QUAD_WIDTH 23
DEFAULT_CHAR 160
FONT_DESCENT 9
FONT_ASCENT 34
ENDPROPERTIES

CHARS 191

STARTCHAR space
ENCODING 32
SWIDTH 300 0
DWIDTH 11 0
BBX 0 0 0 0
BITMAP
ENDCHAR

STARTCHAR exclam
ENCODING 33
SWIDTH 320 0
DWIDTH 12 0
BBX 9 27 4 0
BITMAP
0100
0780
0780
0F80
0F00
0F00
0F00
0F00
0E00
0E00
1E00
1C00
1C00
1C00
1800
1800
1800
1800
3000
3000
3000
0000
0000
F000
F000
F000
E000
ENDCHAR

STARTCHAR quotedbl
ENCODING 34
SWIDTH 360 0
DWIDTH 14 0
BBX 10 9 7 17
BITMAP
71C0
6180
E380
E380
C300
C300
C300
8200
8200
ENDCHAR

STARTCHAR numbersign
ENCODING 35
SWIDTH 600 0
DWIDTH 23 0
BBX 18 25 5 0
BITMAP
038300
030700
030600
030600
030600
030600
070600
070E00
7FFFC0
7FFFC0
060C00
060C00
0E0C00
0E0C00
0C1C00
FFFF80
FFFF80
0C1800
0C1800
1C1800
1C1800
183800
183000
183000
183000
ENDCHAR

STARTCHAR dollar
ENCODING 36
SWIDTH 620 0
DWIDTH 24 0
BBX 22 34 4 -4
BITMAP
000300
000300
000200
000600
00FE00
03FFCC
0786FC
0E0C7C
1C0C3C
1C0C1C
1C0C1C
1C180C
1E1808
0F1800
07F000
03F800
00FF00
003F80
0037C0
0021E0
C060F0
C06070
C06070
E06070
F0C070
F0C0E0
D8C1E0
DEC3C0
87FF00
01FC00
018000
018000
030000
030000
ENDCHAR

STARTCHAR percent
ENCODING 37
SWIDTH 800 0
DWIDTH 30 0
BBX 26 26 5 0
BITMAP
07C00180
1C600300
38300600
30300C00
60301800
E0303000
E0307000
C0706000
C070C000
C0618000
C0E30000
E1C60000
638C0000
3E0C1F00
00187180
0030E0C0
0061C0C0
00C180C0
018380C0
038300C0
030301C0
06030180
0C030380
18038700
30018E00
6000F800
ENDCHAR

STARTCHAR ampersand
ENCODING 38
SWIDTH 820 0
DWIDTH 31 0
BBX 28 26 4 0
BITMAP
003F0000
00FF8000
01E1C000
01C0E000
0380E000
0380E000
0380C000
0181C000
00E78000
007E1FF0
03FC1FF0
0F0E0300
1C070300
38078600
70038600
7003CC00
E003CC00
E001D8E0
E001F0F0
E001E0F0
F000E070
F001E070
7803F060
3E0E78E0
1FF83FC0
07E00F00
ENDCHAR

STARTCHAR quoteright
ENCODING 39
SWIDTH 280 0
DWIDTH 11 0
BBX 7 11 7 16
BITMAP
1C
3E
3E
1E
06
0C
1C
38
70
C0
80
ENDCHAR

STARTCHAR parenleft
ENCODING 40
SWIDTH 280 0
DWIDTH 11 0
BBX 12 36 4 -9
BITMAP
0030
0060
00C0
01C0
0380
0300
0700
0E00
0E00
0E00
1C00
1C00
1C00
3800
3800
3800
7800
7000
7000
7000
7000
7000
F000
E000
E000
E000
E000
E000
E000
6000
6000
6000
6000
3000
3800
1000
ENDCHAR

STARTCHAR parenright
ENCODING 41
SWIDTH 280 0
DWIDTH 11 0
BBX 12 36 0 -9
BITMAP
0080
00C0
00C0
0060
0060
0060
0070
0070
0070
0070
0070
0070
0070
0070
00F0
00E0
00E0
00E0
00E0
01E0
01C0
01C0
01C0
03C0
0380
0380
0700
0700
0700
0E00
0C00
1C00
3800
3000
E000
4000
ENDCHAR

STARTCHAR asterisk
ENCODING 42
SWIDTH 440 0
DWIDTH 17 0
BBX 14 14 6 13
BITMAP
0380
0380
0380
6380
F300
FB38
3F7C
07F8
0F00
3980
79C0
71E0
21E0
00C0
ENDCHAR

STARTCHAR plus
ENCODING 43
SWIDTH 600 0
DWIDTH 23 0
BBX 18 18 5 4
BITMAP
00C000
00C000
00C000
00C000
00C000
00C000
00C000
00C000
FFFFC0
FFFFC0
00C000
00C000
00C000
00C000
00C000
00C000
00C000
00C000
ENDCHAR

STARTCHAR comma
ENCODING 44
SWIDTH 300 0
DWIDTH 11 0
BBX 7 10 2 -6
BITMAP
1C
3E
3E
1E
06
0C
1C
38
70
C0
ENDCHAR

STARTCHAR minus
ENCODING 45
SWIDTH 600 0
DWIDTH 23 0
BBX 18 2 5 12
BITMAP
FFFFC0
FFFFC0
ENDCHAR

STARTCHAR period
ENCODING 46
SWIDTH 300 0
DWIDTH 11 0
BBX 4 4 4 0
BITMAP
F0
F0
F0
E0
ENDCHAR

STARTCHAR slash
ENCODING 47
SWIDTH 600 0
DWIDTH 23 0
BBX 21 32 1 -5
BITMAP
000038
000070
000060
0000E0
0000C0
000180
000380
000300
000700
000600
000E00
000C00
001800
003800
003000
007000
006000
00E000
00C000
018000
038000
030000
070000
060000
0E0000
0C0000
180000
380000
300000
700000
600000
E00000
ENDCHAR

STARTCHAR zero
ENCODING 48
SWIDTH 620 0
DWIDTH 24 0
BBX 20 26 5 0
BITMAP
003F00
00FF80
03C1C0
0780E0
0F00E0
1E0070
1C0070
3C0070
380070
780070
700070
700070
F000F0
F000F0
E000E0
E000E0
E001E0
E001C0
E003C0
E00380
E00780
700700
700E00
3C3C00
1FF000
07C000
ENDCHAR

STARTCHAR one
ENCODING 49
SWIDTH 620 0
DWIDTH 24 0
BBX 14 26 6 0
BITMAP
000C
007C
03F8
03F8
0038
0038
0038
0070
0070
0070
0070
00E0
00E0
00E0
00E0
01C0
01C0
01C0
01C0
01C0
0380
0380
0380
0780
7FF8
FFF8
ENDCHAR

STARTCHAR two
ENCODING 50
SWIDTH 620 0
DWIDTH 24 0
BBX 22 27 2 -1
BITMAP
003FC0
00FFF0
01E0F8
038078
07003C
06001C
04001C
0C001C
0C001C
0C003C
000038
000078
0000F0
0001E0
0003C0
000700
000E00
001C00
007000
00E000
038030
070020
1C0060
3FFFC0
FFFFC0
FFFFC0
000080
ENDCHAR

STARTCHAR three
ENCODING 51
SWIDTH 620 0
DWIDTH 24 0
BBX 21 26 3 0
BITMAP
003F80
00FFE0
01C1F0
030078
070078
060038
040038
000038
000070
0000F0
0003E0
007F00
007F00
0007C0
0001E0
0001E0
0000E0
0000E0
C000E0
E000E0
E001E0
F003C0
700780
380F00
1FFC00
03E000
ENDCHAR

STARTCHAR four
ENCODING 52
SWIDTH 620 0
DWIDTH 24 0
BBX 20 26 4 0
BITMAP
0001E0
0003E0
0007C0
000EC0
001DC0
0039C0
007380
00E380
038380
070380
0E0700
1C0700
380700
700700
C00600
FFFFF0
FFFFF0
000E00
000E00
001C00
001C00
001C00
001C00
001C00
003800
003800
ENDCHAR

STARTCHAR five
ENCODING 53
SWIDTH 620 0
DWIDTH 24 0
BBX 22 27 4 0
BITMAP
00000C
01FFF8
03FFF8
03FFF8
030000
030000
060000
060000
060000
0C0000
0FF800
0FFF00
1FFF80
0007C0
0003E0
0001E0
0000E0
0000E0
0000E0
0000E0
E001E0
E001C0
E003C0
F00780
781F00
1FFC00
07E000
ENDCHAR

STARTCHAR six
ENCODING 54
SWIDTH 620 0
DWIDTH 24 0
BBX 21 27 5 0
BITMAP
0007F8
003FF0
00F800
03E000
078000
0F0000
0E0000
1C0000
3C0000
38FC00
7BFF00
770780
7C03C0
F801E0
F801E0
F000E0
F000E0
E000E0
E000E0
E001E0
E001C0
F003C0
700380
380780
3C1E00
0FFC00
03F000
ENDCHAR

STARTCHAR seven
ENCODING 55
SWIDTH 620 0
DWIDTH 24 0
BBX 21 27 7 0
BITMAP
100000
3FFFF8
3FFFF0
7FFF70
6000E0
4001C0
C00380
800700
000E00
000C00
001800
003800
007000
00E000
01E000
01C000
038000
078000
070000
0F0000
0E0000
1E0000
1C0000
3C0000
3C0000
380000
780000
ENDCHAR

STARTCHAR eight
ENCODING 56
SWIDTH 620 0
DWIDTH 24 0
BBX 20 26 4 0
BITMAP
007F00
01FFC0
0381E0
0700F0
0E0070
0E0070
0E0070
0E0070
0F00E0
0781C0
07E380
00FE00
03FE00
073F00
1C0780
3803C0
7001E0
E000E0
E000E0
E000E0
E000E0
7001C0
7003C0
3C0F80
1FFE00
03F000
ENDCHAR

STARTCHAR nine
ENCODING 57
SWIDTH 620 0
DWIDTH 24 0
BBX 21 27 4 -1
BITMAP
007E00
01FFC0
07C1E0
0F00F0
0E0070
1E0078
1C0038
3C0038
380038
380038
380078
380078
3C00F8
1C00F8
1E01F0
0F0770
07FEF0
01F8E0
0001E0
0001C0
000380
000780
000F00
003E00
01F800
7FE000
FF0000
ENDCHAR

STARTCHAR colon
ENCODING 58
SWIDTH 300 0
DWIDTH 11 0
BBX 7 18 4 0
BITMAP
1E
1E
1E
1C
00
00
00
00
00
00
00
00
00
00
70
F0
F0
E0
ENDCHAR

STARTCHAR semicolon
ENCODING 59
SWIDTH 300 0
DWIDTH 11 0
BBX 10 25 2 -7
BITMAP
03C0
03C0
03C0
0380
0000
0000
0000
0000
0000
0000
0000
0000
0000
0000
1C00
3E00
3E00
3E00
0E00
0C00
1C00
3800
7000
C000
8000
ENDCHAR

STARTCHAR less
ENCODING 60
SWIDTH 600 0
DWIDTH 23 0
BBX 17 17 5 3
BITMAP
000080
000780
001F80
007E00
01F800
0FC000
3F0000
FC0000
F00000
7E0000
1F8000
03E000
00FC00
003F00
000F80
000180
000080
ENDCHAR

STARTCHAR equal
ENCODING 61
SWIDTH 600 0
DWIDTH 23 0
BBX 18 8 5 9
BITMAP
FFFFC0
FFFFC0
000000
000000
000000
000000
FFFFC0
FFFFC0
ENDCHAR

STARTCHAR greater
ENCODING 62
SWIDTH 600 0
DWIDTH 23 0
BBX 17 17 6 3
BITMAP
800000
F00000
FC0000
3F0000
0FC000
01F800
007E00
001F80
000780
003F00
00FC00
03F000
1F8000
7E0000
F80000
E00000
800000
ENDCHAR

STARTCHAR question
ENCODING 63
SWIDTH 540 0
DWIDTH 21 0
BBX 17 26 6 0
BITMAP
07E000
3FF800
7C1E00
780700
700700
200380
000380
000380
000380
000380
000700
000F00
001E00
1FFC00
1FF000
1F0000
180000
100000
300000
300000
000000
000000
700000
F00000
F00000
E00000
ENDCHAR

STARTCHAR at
ENCODING 64
SWIDTH 780 0
DWIDTH 30 0
BBX 33 35 2 -8
BITMAP
0003FC0000
001E038000
007000C000
00C0002000
0380001000
0700000800
0E00000C00
0C00000400
1800000400
3800F38600
30038F0200
30060B0200
600E0F0200
601C0E0200
40180E0200
C0380E0200
C0700E0200
C0701C0600
C0E01C0400
C0E03C0C00
C0E0380800
C0E0581800
40E0B83000
60F3386000
607E38C180
207C1F0300
3000000200
1000000600
1800000C00
0C00001800
0600003000
0300006000
00C001C000
00780F0000
000FF80000
ENDCHAR

STARTCHAR A
ENCODING 65
SWIDTH 700 0
DWIDTH 27 0
BBX 27 26 0 0
BITMAP
00007000
0000F800
0000F800
0001B800
0003B800
00033800
00073800
00063C00
000C1C00
001C1C00
00181C00
00381C00
00301E00
00600E00
00FFFE00
00FFFE00
01C00E00
01800E00
03800F00
07000F00
06000700
0E000700
0C000700
1C000780
FF807FE0
FF807FE0
ENDCHAR

STARTCHAR B
ENCODING 66
SWIDTH 720 0
DWIDTH 27 0
BBX 28 26 2 0
BITMAP
07FFFF00
03FFFFC0
00F003E0
00E000F0
00E000F0
00E000F0
01E000F0
01E000E0
01C001E0
01C003C0
01C00F80
03FFFE00
03FFFE00
03801F00
03800780
078003C0
070003C0
070003C0
070003C0
070003C0
0E000780
0E000780
0E000F00
1E007E00
FFFFF800
FFFFE000
ENDCHAR

STARTCHAR C
ENCODING 67
SWIDTH 720 0
DWIDTH 27 0
BBX 25 26 4 0
BITMAP
001FE000
007FF980
01F01F80
03C00F80
07800780
0F000380
1E000180
3C000180
3C000180
78000000
78000000
78000000
F0000000
F0000000
F0000000
F0000000
F0000000
F0000000
F0000000
78000300
78000600
3C001C00
1E007800
0F81F000
07FFC000
01FE0000
ENDCHAR

STARTCHAR D
ENCODING 68
SWIDTH 740 0
DWIDTH 28 0
BBX 29 26 1 0
BITMAP
03FFFC00
01FFFF00
00700FC0
007003E0
007001E0
00F000F0
00F00070
00E00078
00E00078
00E00078
01E00078
01C00078
01C00078
01C00078
03C000F0
03C000F0
038000F0
038001E0
078001E0
078003C0
07000780
07000F00
07003E00
0F00FC00
7FFFF000
FFFF8000
ENDCHAR

STARTCHAR E
ENCODING 69
SWIDTH 680 0
DWIDTH 26 0
BBX 26 26 2 0
BITMAP
07FFFF00
03FFFF80
00E00F80
00E00380
00E001C0
01E000C0
01C000C0
01C03000
01C03000
01C06000
0380E000
03FFE000
03FFE000
0381C000
0780C000
0700C000
0700C000
07000180
07000180
0F000300
0E000700
0E000E00
0E001E00
1E007E00
FFFFFC00
FFFFFC00
ENDCHAR

STARTCHAR F
ENCODING 70
SWIDTH 620 0
DWIDTH 24 0
BBX 27 26 1 0
BITMAP
03FFFF80
01FFFF80
007007C0
007001C0
007000C0
00F000E0
00E00060
00E00000
00E03800
00E03000
01E03000
01C07000
01FFE000
01FFE000
03C0E000
03806000
03806000
0380C000
07800000
07800000
07000000
07000000
07000000
0F000000
7FE00000
FFE00000
ENDCHAR

STARTCHAR G
ENCODING 71
SWIDTH 760 0
DWIDTH 29 0
BBX 27 26 4 0
BITMAP
001FE000
007FF980
01F03F80
03C00F80
07800780
0F000380
1E000180
3C000180
3C000180
78000000
78000000
78000000
F0000000
F0007FE0
F0007FE0
F0000F00
F0000F00
F0000E00
F0000E00
78001E00
78001E00
3C003C00
1E007C00
0F83EC00
07FF9C00
01FE1800
ENDCHAR

STARTCHAR H
ENCODING 72
SWIDTH 800 0
DWIDTH 30 0
BBX 34 26 1 0
BITMAP
03FF80FFC0
03FF01FFC0
0078003C00
0070003C00
0070003800
0070003800
00F0003800
00E0007800
00E0007000
00E0007000
01E0007000
01E000F000
01FFFFF000
01FFFFE000
01C000E000
03C000E000
038001E000
038001C000
038001C000
078001C000
070003C000
0700038000
0700038000
0F00078000
7FE03FF000
FFE03FF000
ENDCHAR

STARTCHAR I
ENCODING 73
SWIDTH 320 0
DWIDTH 12 0
BBX 16 26 1 0
BITMAP
03FF
03FF
00F0
00F0
00F0
00E0
00E0
00E0
01E0
01C0
01C0
01C0
03C0
03C0
0380
0380
0380
0780
0700
0700
0700
0F00
0F00
1F00
FFE0
FFC0
ENDCHAR

STARTCHAR J
ENCODING 74
SWIDTH 560 0
DWIDTH 21 0
BBX 25 26 1 0
BITMAP
0001FF80
0001FF80
00003C00
00003800
00003800
00007800
00007000
00007000
00007000
00007000
0000F000
0000E000
0000E000
0000E000
0001E000
0001C000
2001C000
7001C000
F003C000
F0038000
E0038000
E0078000
700F0000
783E0000
1FF80000
07E00000
ENDCHAR

STARTCHAR K
ENCODING 75
SWIDTH 720 0
DWIDTH 27 0
BBX 30 26 2 0
BITMAP
07FF0FFC
07FE0FFC
00F003E0
00F00380
00E00F00
00E01E00
01E03800
01E07000
01C0E000
01C3C000
03C70000
03CF0000
039F8000
03BB8000
03E3C000
07C1C000
0781E000
0700E000
0700F000
0F007000
0E007800
0E003800
0E003C00
1E003E00
FFC1FFC0
FFC1FF80
ENDCHAR

STARTCHAR L
ENCODING 76
SWIDTH 580 0
DWIDTH 22 0
BBX 23 26 1 0
BITMAP
03FF00
03FF00
007800
007000
007000
007000
00F000
00E000
00E000
00E000
01E000
01C000
01C000
01C000
03C000
03C000
038000
038004
038006
07800C
07001C
070038
070078
0F01F0
7FFFF0
FFFFE0
ENDCHAR

STARTCHAR M
ENCODING 77
SWIDTH 860 0
DWIDTH 33 0
BBX 36 26 1 0
BITMAP
03FC000FF0
03FC001FF0
006C001B80
006E003700
006E007700
00EE006E00
00CE00EE00
00CE00CE00
00CE019E00
00CE019E00
018E031C00
018E071C00
018F061C00
01870E3C00
03870C3800
0307183800
0307183800
0307307800
0707307000
0607607000
0607607000
0607C0F000
0E0380F000
0E0380F000
7FC30FFE00
FFC30FFC00
ENDCHAR

STARTCHAR N
ENCODING 78
SWIDTH 720 0
DWIDTH 27 0
BBX 32 26 1 0
BITMAP
03FC03FF
03FE03FE
006E0070
006E0060
006F0060
00670060
00C700E0
00C780C0
00C380C0
00C3C0C0
01C1C1C0
0181C180
0181E180
0180E180
0380E180
0300F300
03007300
03007300
03007B00
07003B00
06003E00
06003E00
06001E00
0E001E00
7FC00C00
FFC00C00
ENDCHAR

STARTCHAR O
ENCODING 79
SWIDTH 760 0
DWIDTH 29 0
BBX 27 26 4 0
BITMAP
000FF000
007FFC00
01F81E00
03E00F00
07800780
0F0003C0
1E0001C0
3C0001E0
3C0001E0
780001E0
780001E0
780001E0
F00001E0
F00001E0
F00003C0
F00003C0
F00003C0
F0000780
70000780
78000F00
78001E00
3C003C00
1E00F800
0F03F000
07FFC000
00FE0000
ENDCHAR

STARTCHAR P
ENCODING 80
SWIDTH 600 0
DWIDTH 23 0
BBX 25 26 2 0
BITMAP
07FFF800
03FFFE00
00F01F00
00E00F00
00E00780
00E00780
01E00780
01E00780
01C00780
01C00F00
03C00F00
03C01E00
03807C00
03FFF800
03FFC000
07800000
07800000
07000000
07000000
0F000000
0F000000
0E000000
0E000000
1E000000
FFC00000
FFC00000
ENDCHAR

STARTCHAR Q
ENCODING 81
SWIDTH 780 0
DWIDTH 30 0
BBX 27 33 4 -7
BITMAP
000FF000
007FFC00
00F81E00
03E00F00
07C00780
0F0003C0
1F0001C0
1E0001C0
3C0001E0
3C0001E0
780001E0
780001E0
780001E0
F00001E0
F00001E0
F00003C0
F00003C0
F0000380
F0000780
70000F00
78000F00
38001E00
3C003C00
1E00F800
0F83E000
03FF8000
007C0000
00700000
00700000
00780000
007C3800
003FF000
001FC000
ENDCHAR

STARTCHAR R
ENCODING 82
SWIDTH 700 0
DWIDTH 27 0
BBX 27 26 2 0
BITMAP
07FFFE00
03FFFF80
00F007C0
00F003C0
00E001E0
00E001E0
01E001E0
01E001E0
01C001C0
01C003C0
01C00780
03C01F00
03FFFE00
03FFF000
03878000
07838000
0783C000
0701C000
0701E000
0700F000
0F007000
0E007800
0E003800
1E003C00
FFC01F80
FFC01F80
ENDCHAR

STARTCHAR S
ENCODING 83
SWIDTH 640 0
DWIDTH 24 0
BBX 23 26 4 0
BITMAP
007F06
01FFEE
0780FE
0F003E
0E001E
1C000E
1C000E
1C0006
1E0000
0F8000
0FE000
03FC00
01FF80
003FE0
0007F0
0001F0
C00078
C00078
C00038
E00038
F00078
F00070
FC00F0
DE03C0
C7FF80
81FC00
ENDCHAR

STARTCHAR T
ENCODING 84
SWIDTH 600 0
DWIDTH 23 0
BBX 24 27 4 0
BITMAP
0C0006
1FFFFE
1FFFFE
3E1C1E
381C0E
701C06
603C06
C03803
403800
003800
007800
007800
007000
007000
007000
00F000
00E000
00E000
00E000
01E000
01C000
01C000
01C000
03C000
03C000
1FF800
3FF800
ENDCHAR

STARTCHAR U
ENCODING 85
SWIDTH 720 0
DWIDTH 27 0
BBX 27 26 6 0
BITMAP
FFE03FE0
FFC03FE0
1E000700
1E000600
1C000600
1C000E00
3C000C00
3C000C00
38000C00
38001C00
38001800
78001800
70001800
70003800
70003000
F0003000
E0003000
E0007000
E0006000
E0006000
F000E000
F001C000
78038000
3E0F0000
1FFE0000
07F80000
ENDCHAR

STARTCHAR V
ENCODING 86
SWIDTH 680 0
DWIDTH 26 0
BBX 26 26 6 0
BITMAP
FF807FC0
FF807F80
3C001E00
3C001C00
3C001800
1C003800
1C003000
1C007000
1C006000
1E00C000
1E01C000
0E018000
0E038000
0E030000
0E070000
0E060000
0F0C0000
0F1C0000
07180000
07380000
07300000
07600000
07600000
07C00000
03C00000
03800000
ENDCHAR

STARTCHAR W
ENCODING 87
SWIDTH 960 0
DWIDTH 36 0
BBX 36 26 6 0
BITMAP
FF87FC1FF0
FF87FC1FF0
3C01E00380
3C01E00300
1C00E00700
1C00E00600
1C00E00E00
1C01E00C00
1C03E01C00
1C03E01800
1C07603800
1E06F03000
1E0EF07000
1E0CF06000
0E1C70E000
0E1870C000
0E3871C000
0E30718000
0E70738000
0E60730000
0EE0770000
0EC0760000
0F807E0000
0F807C0000
0F00780000
0700380000
ENDCHAR

STARTCHAR X
ENCODING 88
SWIDTH 700 0
DWIDTH 27 0
BBX 31 26 0 0
BITMAP
01FF83FE
03FF03FE
007800F0
003C00C0
003C0180
001C0300
001E0600
000F0C00
000F1800
0007B000
0007E000
0001C000
0003C000
0007E000
000EE000
001CF000
00387000
00707800
00E03800
01C03C00
03801E00
07001E00
0E000F00
1E000F00
FF807FE0
FF807FE0
ENDCHAR

STARTCHAR Y
ENCODING 89
SWIDTH 660 0
DWIDTH 25 0
BBX 25 26 6 0
BITMAP
FF80FF80
FF80FF80
3C003C00
1C003800
1E007000
1E00E000
0E00C000
0F018000
07038000
07870000
078E0000
038C0000
03D80000
01F00000
01F00000
00E00000
01E00000
01E00000
01C00000
01C00000
01C00000
03C00000
03800000
07C00000
3FF00000
3FF00000
ENDCHAR

STARTCHAR Z
ENCODING 90
SWIDTH 580 0
DWIDTH 22 0
BBX 25 26 1 0
BITMAP
01FFFF80
03FFFF80
03E00F00
07801E00
07003C00
0E007800
1C00F000
0801E000
0003E000
0007C000
00078000
000F0000
001E0000
003C0000
00780000
00F00000
01E00000
03E00600
07C00C00
0F801C00
0F001800
1E007800
3C00F000
7807F000
FFFFE000
FFFFE000
ENDCHAR

STARTCHAR bracketleft
ENCODING 91
SWIDTH 260 0
DWIDTH 10 0
BBX 14 36 1 -9
BITMAP
00FC
00FC
00C0
00C0
01C0
01C0
01C0
0180
0380
0380
0380
0300
0300
0700
0700
0700
0600
0E00
0E00
0E00
0C00
1C00
1C00
1C00
1800
1800
3800
3800
3800
3000
7000
7000
7000
6000
FC00
FC00
ENDCHAR

STARTCHAR backslash
ENCODING 92
SWIDTH 600 0
DWIDTH 23 0
BBX 21 32 3 -5
BITMAP
C00000
E00000
700000
300000
380000
180000
1C0000
0E0000
060000
070000
030000
038000
018000
01C000
00E000
006000
007000
003000
003800
001800
001C00
000E00
000600
000700
000300
000380
0001C0
0000C0
0000E0
000060
000070
000038
ENDCHAR

STARTCHAR bracketright
ENCODING 93
SWIDTH 260 0
DWIDTH 10 0
BBX 13 36 -1 -9
BITMAP
00F8
01F8
0038
0038
0030
0070
0070
0070
0060
0060
00E0
00E0
00C0
00C0
01C0
01C0
01C0
0180
0380
0380
0380
0300
0300
0700
0700
0700
0600
0E00
0E00
0E00
0C00
1C00
1C00
1C00
F800
F800
ENDCHAR

STARTCHAR asciicircum
ENCODING 94
SWIDTH 600 0
DWIDTH 23 0
BBX 19 15 5 11
BITMAP
01E000
01E000
03F000
03B000
073800
071800
0E1C00
0C0E00
1C0E00
180700
380700
700380
700180
E001C0
E000E0
ENDCHAR

STARTCHAR underscore
ENCODING 95
SWIDTH 500 0
DWIDTH 19 0
BBX 19 2 0 -5
BITMAP
FFFFE0
FFFFE0
ENDCHAR

STARTCHAR quoteleft
ENCODING 96
SWIDTH 280 0
DWIDTH 11 0
BBX 7 11 7 16
BITMAP
02
0E
1C
38
60
60
C0
F8
F8
F8
70
ENDCHAR

STARTCHAR a
ENCODING 97
SWIDTH 620 0
DWIDTH 24 0
BBX 22 18 4 0
BITMAP
01F860
07FEE0
0F03E0
1E00E0
3C01C0
3801C0
7801C0
7003C0
F00380
F00380
E00780
E00780
E00F00
E01B00
F0370C
78E718
3FC3F0
1F01C0
ENDCHAR

STARTCHAR b
ENCODING 98
SWIDTH 600 0
DWIDTH 23 0
BBX 19 27 4 0
BITMAP
038000
3F0000
7F0000
070000
070000
0E0000
0E0000
0E0000
0E0000
1E1F00
1C7FC0
1CE3C0
1D81E0
1B00E0
3E00E0
3C00E0
3C00E0
3801E0
7801E0
7001C0
7003C0
700380
F00780
F00F00
F83E00
CFFC00
C3F000
ENDCHAR

STARTCHAR c
ENCODING 99
SWIDTH 480 0
DWIDTH 18 0
BBX 17 18 3 0
BITMAP
00FC00
03FF00
0F8780
1E0380
3C0380
380380
780100
F00000
F00000
E00000
E00000
E00000
E00000
F00380
700700
7C1C00
3FF800
0FC000
ENDCHAR

STARTCHAR d
ENCODING 100
SWIDTH 640 0
DWIDTH 24 0
BBX 22 27 4 0
BITMAP
000018
0000F8
0003F8
000038
000070
000070
000070
000070
000060
00F8E0
07FEE0
0F03E0
1E00E0
3C01C0
3801C0
7801C0
7001C0
F00380
E00380
E00780
E00780
E00F80
E01B00
F0370C
78E718
3FC3F0
1F01C0
ENDCHAR

STARTCHAR e
ENCODING 101
SWIDTH 540 0
DWIDTH 21 0
BBX 18 18 4 0
BITMAP
007E00
03FF80
0783C0
1E01C0
3C01C0
3801C0
780380
F01F00
F3FC00
FFC000
E00000
E00000
E00000
F00180
780700
7C1E00
3FF800
0FC000
ENDCHAR

STARTCHAR f
ENCODING 102
SWIDTH 340 0
DWIDTH 13 0
BBX 25 35 -4 -8
BITMAP
00003E00
0000FF80
0001C780
00018380
00038000
00038000
00070000
00070000
00070000
007FF000
007FF000
000E0000
000E0000
000E0000
001C0000
001C0000
001C0000
001C0000
001C0000
00380000
00380000
00380000
00380000
00700000
00700000
00700000
00700000
00600000
00E00000
00E00000
00C00000
61C00000
F3800000
7F000000
3C000000
ENDCHAR

STARTCHAR g
ENCODING 103
SWIDTH 560 0
DWIDTH 21 0
BBX 21 26 1 -8
BITMAP
003E18
01FF98
03E0F8
078038
0F0070
0E0070
1E0070
1C0070
3C00F0
3C00E0
3801E0
3801E0
3803E0
3806C0
3C0DC0
1E39C0
0FF1C0
07C380
000380
000380
000700
600F00
F00E00
783C00
3FF800
0FC000
ENDCHAR

STARTCHAR h
ENCODING 104
SWIDTH 620 0
DWIDTH 24 0
BBX 22 27 4 0
BITMAP
038000
1F0000
3F0000
070000
070000
070000
0E0000
0E0000
0E0000
0E1F00
1C7F80
1CE3C0
1D81C0
1F01C0
3E01C0
3E0380
3C0380
3C0380
380380
780380
700300
700700
700700
E0070C
E00718
E007F0
E001C0
ENDCHAR

STARTCHAR i
ENCODING 105
SWIDTH 280 0
DWIDTH 11 0
BBX 8 27 4 0
BITMAP
07
0F
0F
06
00
00
00
00
00
0E
FC
FC
1C
38
38
38
38
70
70
70
70
E0
E0
E1
E7
7E
38
ENDCHAR

STARTCHAR j
ENCODING 106
SWIDTH 280 0
DWIDTH 11 0
BBX 18 35 -4 -8
BITMAP
0001C0
0003C0
0003C0
000380
000000
000000
000000
000000
000000
000300
003F00
007F00
000F00
000E00
000E00
000E00
001E00
001C00
001C00
001C00
003C00
003800
003800
003800
003800
007000
007000
007000
007000
00E000
00E000
E0C000
F1C000
FF0000
3C0000
ENDCHAR

STARTCHAR k
ENCODING 107
SWIDTH 600 0
DWIDTH 23 0
BBX 21 27 4 0
BITMAP
038000
3F8000
3F0000
070000
070000
070000
0E0000
0E0000
0E0000
0E07E0
1C1FF0
1C38F0
1C6020
1CC000
3DE000
3BE000
3AE000
3E7000
3C7000
783800
783800
703C00
701C00
F01C18
E00E30
E00FE0
E003C0
ENDCHAR

STARTCHAR l
ENCODING 108
SWIDTH 280 0
DWIDTH 11 0
BBX 9 28 4 0
BITMAP
0100
1F00
7F00
0700
0E00
0E00
0E00
0E00
1E00
1C00
1C00
1C00
1C00
3800
3800
3800
3800
7800
7000
7000
7000
7000
E000
E000
E180
E300
FE00
3800
ENDCHAR

STARTCHAR m
ENCODING 109
SWIDTH 880 0
DWIDTH 33 0
BBX 32 18 4 0
BITMAP
0E3E07C0
FEFF1FE0
FDC3B8F0
1F83B070
1F03E070
1E03C070
1C0380F0
3C0780E0
3C0700E0
380700E0
380700E0
780E00E0
700E01C0
700E01C0
700E01C3
F01C01C6
E01C01FC
E01C0070
ENDCHAR

STARTCHAR n
ENCODING 110
SWIDTH 620 0
DWIDTH 24 0
BBX 22 18 4 0
BITMAP
0E1F00
FE7F80
FCE3C0
1DC1C0
1D01C0
1F01C0
3E03C0
3C0380
3C0380
380380
780380
700380
700700
700700
70070C
E00718
E007F0
E001C0
ENDCHAR

STARTCHAR o
ENCODING 111
SWIDTH 540 0
DWIDTH 21 0
BBX 18 18 3 0
BITMAP
00FC00
07FE00
0F0780
1C0380
3C03C0
7801C0
7001C0
F001C0
F001C0
E003C0
E003C0
E00380
E00780
F00F00
700E00
383C00
1FF800
07C000
ENDCHAR

STARTCHAR p
ENCODING 112
SWIDTH 600 0
DWIDTH 23 0
BBX 25 26 -2 -8
BITMAP
00387C00
03F1FF00
03F38F00
00760780
006C0380
00F80380
00F00380
00F00380
00E00780
01E00780
01C00700
01C00F00
01C00E00
03801E00
03C03C00
03E0F800
03BFE000
038F8000
07000000
07000000
07000000
07000000
0E000000
0F000000
FFE00000
FFE00000
ENDCHAR

STARTCHAR q
ENCODING 113
SWIDTH 560 0
DWIDTH 21 0
BBX 19 26 3 -8
BITMAP
00F860
07FE60
0F83E0
1E01E0
3C00C0
3801C0
7801C0
7001C0
F003C0
F00380
E00780
E00780
E00B80
E01B00
F03700
78E700
3FC700
1F0E00
000E00
000E00
000E00
000E00
001C00
001E00
01FF80
01FF80
ENDCHAR

STARTCHAR r
ENCODING 114
SWIDTH 400 0
DWIDTH 15 0
BBX 15 18 4 0
BITMAP
0E3C
FE7E
FEFE
1DC4
1F00
1F00
1E00
3C00
3C00
3C00
3800
3800
7000
7000
7000
7000
E000
E000
ENDCHAR

STARTCHAR s
ENCODING 115
SWIDTH 540 0
DWIDTH 21 0
BBX 18 18 3 0
BITMAP
01FC00
07FF00
0E0780
1C03C0
1C01C0
1C0000
0F0000
0FE000
03F800
00FE00
001F00
000780
E00380
F00380
780380
3C0F00
1FFE00
03F000
ENDCHAR

STARTCHAR t
ENCODING 116
SWIDTH 340 0
DWIDTH 13 0
BBX 12 24 3 0
BITMAP
0180
0300
0300
0700
0E00
1E00
7FF0
FFF0
0E00
1C00
1C00
1C00
1C00
3800
3800
3800
3800
3800
7000
7020
70E0
71C0
3F80
1E00
ENDCHAR

STARTCHAR u
ENCODING 117
SWIDTH 620 0
DWIDTH 24 0
BBX 22 18 4 0
BITMAP
060000
1E00E0
EE00E0
1C00E0
1C01C0
1C01C0
1C01C0
1C03C0
380380
380380
380780
380F80
700F00
701B00
70370C
78E718
3FC7F0
1F01C0
ENDCHAR

STARTCHAR v
ENCODING 118
SWIDTH 540 0
DWIDTH 21 0
BBX 19 19 3 0
BITMAP
000080
0E01C0
FE01E0
EE01E0
1C00E0
1C00E0
1C00C0
1C00C0
3C01C0
380180
380380
380300
380600
700E00
701C00
703800
78F000
3FC000
1F0000
ENDCHAR

STARTCHAR w
ENCODING 119
SWIDTH 880 0
DWIDTH 33 0
BBX 32 19 3 0
BITMAP
00000006
0E00700E
FE00700F
EE00E00F
1C00E007
1C00E007
1C00E007
1C01E006
3C01C006
3801C00C
3803C00C
3807C018
38078038
700D8030
701B8060
703B80C0
78E3C380
3FC1FF00
1F00FC00
ENDCHAR

STARTCHAR x
ENCODING 120
SWIDTH 540 0
DWIDTH 21 0
BBX 22 18 1 0
BITMAP
01C03C
0FC0FC
0FE1FC
00E180
00E300
007600
007C00
003C00
007800
007800
00D800
019C00
019C00
031E00
060E08
FE0F38
FC07F0
7003C0
ENDCHAR

STARTCHAR y
ENCODING 121
SWIDTH 600 0
DWIDTH 23 0
BBX 21 26 3 -8
BITMAP
030000
0F0078
7F0070
060070
0E0070
0E00F0
0E00E0
0E00E0
1C01E0
1C01E0
1C03C0
1C03C0
3807C0
380DC0
381B80
3C7380
1FE380
0F8380
000700
000700
000F00
E00E00
E01C00
F07800
7FF000
1F8000
ENDCHAR

STARTCHAR z
ENCODING 122
SWIDTH 520 0
DWIDTH 20 0
BBX 21 18 1 0
BITMAP
03F800
0FFFF8
0E07F0
1E01E0
1C03C0
1C0780
001F00
003E00
007800
00F000
01E000
03C060
0F8070
1F00F0
3800E0
7F01E0
FFFFC0
001E00
ENDCHAR

STARTCHAR braceleft
ENCODING 123
SWIDTH 360 0
DWIDTH 14 0
BBX 14 34 5 -8
BITMAP
001C
0060
00C0
0180
0380
0300
0700
0700
0700
0700
0700
0700
0600
0C00
0800
3000
C000
6000
3000
1800
1800
1800
1800
3800
3800
7000
7000
7000
6000
6000
6000
2000
3000
0C00
ENDCHAR

STARTCHAR bar
ENCODING 124
SWIDTH 600 0
DWIDTH 23 0
BBX 3 36 13 -8
BITMAP
E0
E0
E0
E0
E0
E0
E0
E0
E0
E0
E0
E0
E0
E0
E0
E0
E0
E0
E0
E0
E0
E0
E0
E0
E0
E0
E0
E0
E0
E0
E0
E0
E0
E0
E0
E0
ENDCHAR

STARTCHAR braceright
ENCODING 125
SWIDTH 380 0
DWIDTH 14 0
BBX 14 34 0 -8
BITMAP
00E0
0030
0018
0018
0018
0018
0038
0038
0038
0070
0070
0060
0060
0060
0020
0030
000C
0018
0060
00C0
01C0
0180
0380
0380
0380
0380
0380
0380
0300
0700
0600
0C00
1800
E000
ENDCHAR

STARTCHAR asciitilde
ENCODING 126
SWIDTH 600 0
DWIDTH 23 0
BBX 17 7 6 9
BITMAP
000100
3E0380
7F8700
F3EF00
E0FE00
C07C00
400000
ENDCHAR

STARTCHAR space
ENCODING 160
SWIDTH 300 0
DWIDTH 13 0
BBX 0 0 0 0
BITMAP
ENDCHAR

STARTCHAR Aogonek
ENCODING 161
SWIDTH 700 0
DWIDTH 27 0
BBX 27 32 0 -6
BITMAP
00007800
00007800
0000F800
0001D800
0001B800
00033C00
00031C00
00061C00
000E1C00
000C1C00
00181C00
00181E00
00300E00
00600E00
007FFE00
00FFFE00
00C00F00
01800F00
03800700
03000700
07000700
06000700
0E000780
1E000780
7F803FE0
FF807DE0
00000300
00000600
00000C00
00000C00
00000E00
00000780
ENDCHAR

STARTCHAR breve
ENCODING 162
SWIDTH 440 0
DWIDTH 17 0
BBX 12 4 8 21
BITMAP
C070
7FE0
3FC0
0F00
ENDCHAR

STARTCHAR Lslash
ENCODING 163
SWIDTH 580 0
DWIDTH 22 0
BBX 23 26 1 0
BITMAP
03FF00
03FF00
007800
007000
007000
007000
00F000
00E000
00E200
00E600
01EE00
01F800
01E000
07C000
1FC000
1BC000
138000
038004
038006
07800C
07001C
070038
070078
0F01F0
7FFFF0
FFFFE0
ENDCHAR

STARTCHAR currency
ENCODING 164
SWIDTH 600 0
DWIDTH 23 0
BBX 18 18 5 4
BITMAP
400080
E3F1C0
7FFF80
1E1E00
380700
300300
700380
600180
600180
600180
600180
700380
300300
380600
3E1F00
7FFD80
E3F1C0
200080
ENDCHAR

STARTCHAR Lcaron
ENCODING 165
SWIDTH 580 0
DWIDTH 22 0
BBX 23 26 2 0
BITMAP
03FF1C
07FF3E
00F03E
00F01E
00E006
00E00C
00E01C
01E038
01C070
01C0C0
01C000
01C000
03C000
038000
038000
038000
078000
070004
07000C
07001C
0F0038
0E0038
0E00F0
0E03F0
FFFFE0
FFFFE0
ENDCHAR

STARTCHAR Sacute
ENCODING 166
SWIDTH 640 0
DWIDTH 24 0
BBX 23 32 4 0
BITMAP
0001E0
0003E0
0007C0
001F80
000C00
000000
007F06
01FFEE
0780FE
0F003E
0E001E
1C000E
1C000E
1C0006
1E0000
0F8000
07E000
03FC00
00FF00
003FC0
0007F0
0001F8
C00078
C00078
C00038
E00038
F00078
F00070
FC00F0
DE03C0
C7FF80
81FC00
ENDCHAR

STARTCHAR section
ENCODING 167
SWIDTH 620 0
DWIDTH 24 0
BBX 21 34 2 -8
BITMAP
001F80
007FE0
00E0F0
01C078
038038
038038
038038
03C000
03E000
01F800
00FE00
01FF80
070FC0
0E01E0
0C00F0
1C0070
1C0070
1C0070
1E0060
0F00E0
0FC0C0
07FB80
01FF00
007F80
000F80
0003C0
6001C0
F001C0
7001C0
700180
780380
3C0F00
0FFC00
03F000
ENDCHAR

STARTCHAR dieresis
ENCODING 168
SWIDTH 420 0
DWIDTH 16 0
BBX 10 4 8 21
BITMAP
71C0
F3C0
F3C0
E380
ENDCHAR

STARTCHAR Scaron
ENCODING 169
SWIDTH 640 0
DWIDTH 24 0
BBX 23 32 4 0
BITMAP
004030
00F1E0
003F80
000E00
000400
000000
007F06
01FFEE
0780FE
0F003E
0E001E
1C000E
1C000E
1C0006
1E0000
0F8000
07E000
03FC00
00FF00
003FC0
0007F0
0001F8
C00078
C00078
C00038
E00038
F00078
F00070
FC00F0
DE03C0
C7FF80
81FC00
ENDCHAR

STARTCHAR Scommaaccent
ENCODING 170
SWIDTH 640 0
DWIDTH 24 0
BBX 22 35 5 -9
BITMAP
007F0C
03FFDC
0781FC
0E007C
0C003C
1C001C
1C001C
1C000C
1E0000
0F0000
0FE000
03F800
01FF00
003FC0
000FE0
0003E0
C000F0
C00070
C00070
E00070
E00070
F000E0
F801E0
DE07C0
CFFF00
83FC00
000000
000000
01C000
01E000
01E000
006000
00C000
038000
010000
ENDCHAR

STARTCHAR Tcaron
ENCODING 171
SWIDTH 600 0
DWIDTH 23 0
BBX 24 32 4 0
BITMAP
007070
003DE0
000F80
000600
000000
0C0006
1FFFFE
1FFFFE
3E1C1E
381C0E
701C06
603C06
E03803
203800
003800
007800
007800
007000
007000
007000
00F000
00E000
00E000
00E000
01E000
01C000
01C000
01C000
03C000
03C000
1FF800
3FF800
ENDCHAR

STARTCHAR Zacute
ENCODING 172
SWIDTH 580 0
DWIDTH 22 0
BBX 25 33 1 0
BITMAP
00003800
00007800
0000F800
0001F000
0003C000
00020000
00000000
01FFFF80
03FFFF80
03E00F00
07801E00
07003C00
0E007800
1C00F000
0801E000
0003E000
0007C000
00078000
000F0000
001E0000
003C0000
00780000
00F00000
01E00000
03E00600
07C00C00
0F801C00
0F001800
1E007800
3C00F000
7807F000
FFFFE000
FFFFE000
ENDCHAR

STARTCHAR hyphen
ENCODING 173
SWIDTH 320 0
DWIDTH 12 0
BBX 10 2 3 8
BITMAP
7FC0
FFC0
ENDCHAR

STARTCHAR Zcaron
ENCODING 174
SWIDTH 580 0
DWIDTH 22 0
BBX 25 32 1 0
BITMAP
000E0E00
0007FC00
0001F000
0000C000
00000000
00000000
01FFFF80
03FFFF80
03E00F00
07801E00
07003C00
0E007800
1C00F000
0801E000
0003E000
0007C000
00078000
000F0000
001E0000
003C0000
00780000
00F00000
01E00000
03E00600
07C00C00
0F801C00
0F001800
1E007800
3C00F000
7807F000
FFFFE000
FFFFE000
ENDCHAR

STARTCHAR Zdotaccent
ENCODING 175
SWIDTH 580 0
DWIDTH 22 0
BBX 25 32 1 0
BITMAP
0000E000
0001E000
0001E000
0001C000
00000000
00000000
01FFFF80
03FFFF80
03E00F00
07801E00
07003C00
0E007800
1C00F000
0801E000
0003C000
0007C000
000F8000
001F0000
001E0000
003C0000
00780000
00F00000
01E00000
03C00600
07C00C00
0F801C00
1F003800
1E007800
3C00F000
7807F000
FFFFE000
FFFFC000
ENDCHAR

STARTCHAR degree
ENCODING 176
SWIDTH 400 0
DWIDTH 15 0
BBX 10 10 8 16
BITMAP
1E00
3F00
6180
C0C0
C0C0
C0C0
C0C0
6180
3F00
1E00
ENDCHAR

STARTCHAR aogonek
ENCODING 177
SWIDTH 620 0
DWIDTH 24 0
BBX 22 24 4 -6
BITMAP
01F860
07FEE0
0F83E0
1E00E0
3C01C0
3801C0
7801C0
7001C0
F00380
F00380
E00780
E00780
E00F00
E01B00
F0370C
78E718
3FC7F0
1F01C0
000300
000600
000C00
000C00
000E00
000780
ENDCHAR

STARTCHAR ogonek
ENCODING 178
SWIDTH 260 0
DWIDTH 10 0
BBX 5 6 0 -6
BITMAP
38
60
C0
C0
E0
78
ENDCHAR

STARTCHAR lslash
ENCODING 179
SWIDTH 340 0
DWIDTH 13 0
BBX 12 28 3 0
BITMAP
0040
07C0
1FC0
01C0
0380
0380
0380
0380
0390
0720
0760
07C0
0780
0F00
0E00
1E00
2E00
FE00
DC00
9C00
1C00
1C00
3800
3800
3860
38C0
3F80
0E00
ENDCHAR

STARTCHAR acute
ENCODING 180
SWIDTH 320 0
DWIDTH 12 0
BBX 7 6 8 20
BITMAP
0E
1E
3E
78
E0
80
ENDCHAR

STARTCHAR lcaron
ENCODING 181
SWIDTH 374 0
DWIDTH 14 0
BBX 14 28 4 0
BITMAP
0318
1F3C
7F3C
071C
0E0C
0E18
0E38
0E60
1EC0
1C00
1C00
1C00
1C00
3800
3800
3800
3800
7800
7000
7000
7000
7000
E000
E000
E180
E300
FE00
3800
ENDCHAR

STARTCHAR sacute
ENCODING 182
SWIDTH 540 0
DWIDTH 21 0
BBX 18 26 3 0
BITMAP
000200
000F00
001F00
003E00
007800
006000
000000
000000
01FC00
07FF00
0E0780
1C03C0
1C01C0
1E0000
0F0000
0FE000
03F800
00FE00
001F00
000780
E00380
F00380
780380
3C0F00
1FFE00
03F000
ENDCHAR

STARTCHAR caron
ENCODING 183
SWIDTH 440 0
DWIDTH 17 0
BBX 11 4 8 21
BITMAP
E0E0
7FC0
1F00
0C00
ENDCHAR

STARTCHAR commaaccent
ENCODING 184
SWIDTH 333 0
DWIDTH 13 0
BBX 5 7 4 -9
BITMAP
70
78
78
18
30
E0
40
ENDCHAR

STARTCHAR scaron
ENCODING 185
SWIDTH 540 0
DWIDTH 21 0
BBX 18 25 3 0
BITMAP
0180C0
00E780
007F00
001C00
000000
000000
000000
01FC00
07FF00
0E0780
1C03C0
1C01C0
1E0000
0F0000
0FE000
03F800
00FE00
001F00
000780
E00380
F00380
780380
3C0F00
1FFE00
03F000
ENDCHAR

STARTCHAR scommaaccent
ENCODING 186
SWIDTH 540 0
DWIDTH 21 0
BBX 18 26 3 -8
BITMAP
01FC00
07FF00
0E0780
1C03C0
1C01C0
1E0000
0F0000
0FE000
03F800
00FE00
001F00
000780
E00380
F00380
780380
3C0F00
1FFE00
03F000
000000
018000
03C000
03C000
00C000
018000
070000
020000
ENDCHAR

STARTCHAR tcaron
ENCODING 187
SWIDTH 358 0
DWIDTH 14 0
BBX 17 27 3 0
BITMAP
000700
000780
000780
018180
010300
030600
071C00
071000
1E0000
7FF000
FFF000
0E0000
1E0000
1C0000
1C0000
1C0000
3C0000
380000
380000
380000
380000
700000
702000
706000
79C000
3F8000
1E0000
ENDCHAR

STARTCHAR zacute
ENCODING 188
SWIDTH 520 0
DWIDTH 20 0
BBX 21 26 1 0
BITMAP
000040
0001C0
0003C0
0007C0
000F00
001800
000000
000000
03F800
0FFFF8
0E03F0
1E01E0
1C03C0
1C0780
001F00
003E00
007800
00F000
01E000
03C060
0F80F0
1F00F0
3800E0
7F01E0
FFFFC0
001E00
ENDCHAR

STARTCHAR hungarumlaut
ENCODING 189
SWIDTH 340 0
DWIDTH 13 0
BBX 9 7 7 20
BITMAP
3380
7380
7780
6700
E600
C400
8400
ENDCHAR

STARTCHAR zcaron
ENCODING 190
SWIDTH 520 0
DWIDTH 20 0
BBX 21 25 1 0
BITMAP
006018
0038F0
001FC0
000700
000000
000000
000000
03F800
0FFFF8
0E03F0
1E01E0
1C03C0
1C0780
001F00
003E00
007800
00F000
01E000
03C060
0F80F0
1F00F0
3800E0
7F01E0
FFFFC0
001E00
ENDCHAR

STARTCHAR zdotaccent
ENCODING 191
SWIDTH 520 0
DWIDTH 20 0
BBX 21 25 1 0
BITMAP
000E00
001E00
001E00
001C00
000000
000000
000000
03F000
0FFFF8
1E07F0
1C01E0
1C07C0
1C0F80
001E00
003C00
007800
00F000
03E000
07C060
0F00F0
1E00E0
3800E0
7F01E0
FFFF80
003E00
ENDCHAR

STARTCHAR Racute
ENCODING 192
SWIDTH 700 0
DWIDTH 27 0
BBX 27 33 2 0
BITMAP
00001C00
00003C00
00007C00
0000F800
0001E000
00010000
00000000
07FFFE00
03FFFF80
00F007C0
00F003C0
00E001E0
00E001E0
01E001E0
01E001E0
01C001C0
01C003C0
01C00780
03C01F00
03FFFE00
03FFF000
03878000
07838000
0783C000
0701C000
0701E000
0700F000
0F007000
0E007800
0E003800
1E003C00
FFC01F80
FFC01F80
ENDCHAR

STARTCHAR Aacute
ENCODING 193
SWIDTH 700 0
DWIDTH 27 0
BBX 27 33 0 0
BITMAP
00000C00
00003C00
00007C00
0000F800
0001E000
00018000
00000000
00007000
0000F800
0000F800
0001B800
0003B800
00033800
00073800
00063C00
000C1C00
001C1C00
00181C00
00381C00
00301E00
00600E00
00FFFE00
00FFFE00
01C00E00
01800E00
03800F00
07000F00
06000700
0E000700
0C000700
1C000780
FF807FE0
FF807FE0
ENDCHAR

STARTCHAR Acircumflex
ENCODING 194
SWIDTH 700 0
DWIDTH 27 0
BBX 27 32 0 0
BITMAP
00003000
0000FC00
0003EE00
00070700
00000000
00000000
00007000
0000F800
0000F800
0001B800
0003B800
00033800
00073800
00063C00
000C1C00
001C1C00
00181C00
00381C00
00301E00
00600E00
00FFFE00
00FFFE00
01C00E00
01800E00
03800F00
07000F00
06000700
0E000700
0C000700
1C000780
FF807FE0
FF807FE0
ENDCHAR

STARTCHAR Abreve
ENCODING 195
SWIDTH 700 0
DWIDTH 27 0
BBX 27 32 0 0
BITMAP
00060180
0003FF00
0001FE00
00007800
00000000
00000000
00007000
0000F800
0000F800
0001B800
0003B800
00033800
00073800
00063C00
000C1C00
001C1C00
00181C00
00381C00
00301E00
00600E00
00FFFE00
00FFFE00
01C00E00
01800E00
03800F00
07000F00
06000700
0E000700
0C000700
1C000780
FF807FE0
FF807FE0
ENDCHAR

STARTCHAR Adieresis
ENCODING 196
SWIDTH 700 0
DWIDTH 27 0
BBX 27 32 0 0
BITMAP
0001C700
0003CF00
0003CF00
00038E00
00000000
00000000
00007800
00007800
0000F800
0001D800
0001B800
00033C00
00031C00
00061C00
000E1C00
000C1C00
00181C00
00181E00
00300E00
00600E00
007FFE00
00FFFE00
00C00F00
01800F00
03800700
03000700
07000700
06000700
0E000780
1E000780
7F803FE0
FF807FE0
ENDCHAR

STARTCHAR Lacute
ENCODING 197
SWIDTH 580 0
DWIDTH 22 0
BBX 23 33 1 0
BITMAP
000030
000078
0000F0
0001F0
0003C0
000600
000000
03FF00
03FF00
007800
007000
007000
007000
00F000
00E000
00E000
00E000
01E000
01C000
01C000
01C000
03C000
03C000
038000
038004
038006
07800C
07001C
070038
070078
0F01F0
7FFFF0
FFFFE0
ENDCHAR

STARTCHAR Cacute
ENCODING 198
SWIDTH 720 0
DWIDTH 27 0
BBX 25 32 4 0
BITMAP
00003800
00007800
0000F800
0001E000
00038000
00000000
001FE000
007FF980
01F01F80
03C00F80
07800780
0F000380
1E000180
3C000180
3C000180
78000000
78000000
78000000
F0000000
F0000000
F0000000
F0000000
F0000000
F0000000
F0000000
78000300
78000600
3C001C00
1E007800
0F81F000
07FFC000
01FE0000
ENDCHAR

STARTCHAR Ccedilla
ENCODING 199
SWIDTH 720 0
DWIDTH 27 0
BBX 25 32 5 -6
BITMAP
001FE000
007FFB80
01F03F80
03C00F80
07800780
0F000380
1E000380
3C000180
3C000180
78000000
78000000
78000000
F0000000
F0000000
F0000000
F0000000
F0000000
F0000000
F0000000
78000700
78000E00
3C001C00
1E007000
0F83E000
07FF8000
01FE0000
00600000
00780000
000C0000
018C0000
019C0000
00F00000
ENDCHAR

STARTCHAR Ccaron
ENCODING 200
SWIDTH 720 0
DWIDTH 27 0
BBX 25 32 4 0
BITMAP
00040200
000F1E00
0003F800
0000E000
00004000
00000000
001FE000
007FF980
01F01F80
03C00F80
07800780
0F000380
1E000180
3C000180
3C000180
78000000
78000000
78000000
F0000000
F0000000
F0000000
F0000000
F0000000
F0000000
F0000000
78000300
78000600
3C001C00
1E007800
0F81F000
07FFC000
01FE0000
ENDCHAR

STARTCHAR Eacute
ENCODING 201
SWIDTH 680 0
DWIDTH 26 0
BBX 26 33 2 0
BITMAP
00007000
0000F000
0001F000
0003E000
00078000
00040000
00000000
07FFFF00
03FFFF80
00E00F80
00E00380
00E001C0
01E000C0
01C000C0
01C03000
01C03000
01C06000
0380E000
03FFE000
03FFE000
0381C000
0780C000
0700C000
0700C000
07000180
07000180
0F000300
0E000700
0E000E00
0E001E00
1E007E00
FFFFFC00
FFFFFC00
ENDCHAR

STARTCHAR Eogonek
ENCODING 202
SWIDTH 680 0
DWIDTH 26 0
BBX 26 32 2 -6
BITMAP
07FFFF00
03FFFF80
00F00780
00E00380
00E001C0
00E000C0
01E000C0
01C03000
01C03000
01C07000
03C0E000
03FFE000
03FFE000
0381E000
0380C000
0780C000
0700C000
07000180
07000180
0F000380
0F000700
0E000F00
0E001E00
1E007E00
FFFFFC00
FFFFBC00
00006000
0000C000
00018000
00018000
00018000
0000F000
ENDCHAR

STARTCHAR Edieresis
ENCODING 203
SWIDTH 680 0
DWIDTH 26 0
BBX 26 32 2 0
BITMAP
00071C00
000F3C00
000F3C00
000E3800
00000000
00000000
07FFFF80
03FFFF80
00F00780
00F003C0
00E001C0
00E000C0
00E000C0
01E03000
01C03000
01C07000
01C0E000
03FFE000
03FFE000
0381E000
0380E000
0380C000
0780C000
070000C0
07000180
07000380
0F000300
0E000700
0E001E00
1E007E00
FFFFFC00
FFFFFC00
ENDCHAR

STARTCHAR Ecaron
ENCODING 204
SWIDTH 680 0
DWIDTH 26 0
BBX 26 32 2 0
BITMAP
001C1C00
000FF800
0003E000
00018000
00000000
00000000
07FFFF00
03FFFF80
00E00F80
00E00380
00E001C0
01E000C0
01C000C0
01C03000
01C03000
01C06000
0380E000
03FFE000
03FFE000
0381C000
0780C000
0700C000
0700C000
07000180
07000180
0F000300
0E000700
0E000E00
0E001E00
1E007E00
FFFFFC00
FFFFFC00
ENDCHAR

STARTCHAR Iacute
ENCODING 205
SWIDTH 320 0
DWIDTH 12 0
BBX 17 33 1 0
BITMAP
000300
000780
000F80
001F00
003C00
002000
000000
03FF00
03FF00
00F000
00F000
00F000
00E000
00E000
00E000
01E000
01C000
01C000
01C000
03C000
03C000
038000
038000
038000
078000
070000
070000
070000
0F0000
0F0000
1F0000
FFE000
FFC000
ENDCHAR

STARTCHAR Icircumflex
ENCODING 206
SWIDTH 320 0
DWIDTH 12 0
BBX 17 32 1 0
BITMAP
001800
007C00
01FF00
038380
000000
000000
03FF00
03FF00
00F000
00F000
00F000
00E000
00E000
00E000
01E000
01C000
01C000
01C000
03C000
03C000
038000
038000
038000
078000
070000
070000
070000
0F0000
0F0000
1F0000
FFE000
FFC000
ENDCHAR

STARTCHAR Dcaron
ENCODING 207
SWIDTH 740 0
DWIDTH 28 0
BBX 29 32 1 0
BITMAP
00038380
0001F700
00007C00
00003000
00000000
00000000
03FFFC00
01FFFF00
00700FC0
007003E0
007001E0
00F000F0
00F00070
00E00078
00E00078
00E00078
01E00078
01C00078
01C00078
01C00078
03C000F0
03C000F0
038000F0
038001E0
078001E0
078003C0
07000780
07000F00
07003E00
0F00FC00
7FFFF000
FFFF8000
ENDCHAR

STARTCHAR Dcroat
ENCODING 208
SWIDTH 740 0
DWIDTH 28 0
BBX 29 26 1 0
BITMAP
03FFFC00
01FFFF00
00700FC0
007003E0
007001E0
00F000F0
00F00070
00E00078
00E00078
00E00078
01E00078
01C00078
1FFFC078
1FFFC078
03C000F0
03C000F0
038000F0
038001E0
078001E0
078003C0
07000780
07000F00
07003E00
0F00FC00
7FFFF000
FFFF8000
ENDCHAR

STARTCHAR Nacute
ENCODING 209
SWIDTH 720 0
DWIDTH 27 0
BBX 32 33 1 0
BITMAP
00000300
00000780
00000F80
00001F00
00007C00
00002000
00000000
03FC03FF
03FE03FE
006E0070
006E0060
006F0060
00670060
00C700E0
00C780C0
00C380C0
00C3C0C0
01C1C1C0
0181C180
0181E180
0180E180
0380E180
0300F300
03007300
03007300
03007B00
07003B00
06003E00
06003E00
06001E00
0E001E00
7FC00C00
FFC00C00
ENDCHAR

STARTCHAR Ncaron
ENCODING 210
SWIDTH 720 0
DWIDTH 27 0
BBX 32 32 1 0
BITMAP
000381C0
0001EF80
00007E00
00003800
00000000
00000000
03FC03FF
03FE03FE
006E0070
006E0060
006F0060
00670060
00C700E0
00C780C0
00C380C0
00C3C0C0
01C1C1C0
0181C180
0181E180
0180E180
0380E180
0300F300
03007300
03007300
03007B00
07003B00
06003E00
06003E00
06001E00
0E001E00
7FC00C00
FFC00C00
ENDCHAR

STARTCHAR Oacute
ENCODING 211
SWIDTH 760 0
DWIDTH 29 0
BBX 27 32 4 0
BITMAP
00001C00
00003C00
00007C00
0000F000
0001C000
00000000
000FF000
007FFC00
01F81F00
03E00F00
07800780
0F0003C0
1E0001C0
3C0001E0
3C0001E0
780001E0
780001E0
780001E0
F00001E0
F00001E0
F00003C0
F00003C0
F00003C0
F0000780
70000780
78000F00
78001E00
3C003C00
1E00F800
0F03F000
07FFC000
00FE0000
ENDCHAR

STARTCHAR Ocircumflex
ENCODING 212
SWIDTH 760 0
DWIDTH 29 0
BBX 27 32 4 0
BITMAP
00002000
0000F000
0003F800
000F1E00
00040200
00000000
000FF000
007FFC00
01F81F00
03E00F00
07800780
0F0003C0
1E0001C0
3C0001E0
3C0001E0
780001E0
780001E0
780001E0
F00001E0
F00001E0
F00003C0
F00003C0
F00003C0
F0000780
70000780
78000F00
78001E00
3C003C00
1E00F800
0F03F000
07FFC000
00FE0000
ENDCHAR

STARTCHAR Ohungarumlaut
ENCODING 213
SWIDTH 760 0
DWIDTH 29 0
BBX 27 34 4 0
BITMAP
00008800
00039C00
00039C00
0003B800
00033800
00063000
00066000
00000000
000FF000
007FFC00
01F81F00
03E00F00
07800780
0F0003C0
1E0001C0
3C0001E0
3C0001E0
780001E0
780001E0
780001E0
F00001E0
F00001E0
F00003C0
F00003C0
F00003C0
F0000780
70000780
78000F00
78001E00
3C003C00
1E00F800
0F03F000
07FFC000
00FE0000
ENDCHAR

STARTCHAR Odieresis
ENCODING 214
SWIDTH 760 0
DWIDTH 29 0
BBX 27 32 4 0
BITMAP
00078E00
00079E00
00079E00
00071C00
00000000
00000000
000FF000
007FFC00
00F81F00
03E00780
07800380
0F0003C0
1E0001C0
1E0001E0
3C0001E0
780001E0
780001E0
780001E0
F00001E0
F00001E0
F00001C0
F00003C0
F00003C0
F0000780
70000780
78000F00
78001E00
3C003C00
1E007800
0F83F000
07FFC000
00FE0000
ENDCHAR

STARTCHAR multiply
ENCODING 215
SWIDTH 600 0
DWIDTH 23 0
BBX 16 16 6 5
BITMAP
2002
E007
700E
381C
1C38
0E70
07E0
03C0
03C0
07E0
0E70
1C38
381C
F00E
6007
2002
ENDCHAR

STARTCHAR Rcaron
ENCODING 216
SWIDTH 700 0
DWIDTH 27 0
BBX 27 32 2 0
BITMAP
00070700
0003DE00
0001F800
00006000
00000000
00000000
07FFFE00
03FFFF80
00F007C0
00F003C0
00E001E0
00E001E0
01E001E0
01E001E0
01C001C0
01C003C0
01C00780
03C01F00
03FFFE00
03FFF000
03878000
07838000
0783C000
0701C000
0701E000
0700F000
0F007000
0E007800
0E003800
1E003C00
FFC01F80
FFC01F80
ENDCHAR

STARTCHAR Uring
ENCODING 217
SWIDTH 720 0
DWIDTH 27 0
BBX 27 34 6 0
BITMAP
0007C000
000C6000
00082000
00082000
00082000
00046000
00038000
00000000
FFE03FE0
FFC03FE0
1E000700
1E000600
1C000600
1C000600
3C000E00
3C000C00
38000C00
38000C00
38001C00
78001800
70001800
70001800
70003800
F0003000
E0003000
E0003000
E0007000
E0006000
F000E000
F001C000
78038000
3E0F0000
1FFE0000
07F80000
ENDCHAR

STARTCHAR Uacute
ENCODING 218
SWIDTH 720 0
DWIDTH 27 0
BBX 27 33 6 0
BITMAP
00006000
0000F000
0001F000
0003E000
00078000
00040000
00000000
FFE03FE0
FFC03FE0
1E000700
1E000600
1C000600
1C000E00
3C000C00
3C000C00
38000C00
38001C00
38001800
78001800
70001800
70003800
70003000
F0003000
E0003000
E0007000
E0006000
E0006000
F000C000
F001C000
78038000
3E0F0000
1FFE0000
07F80000
ENDCHAR

STARTCHAR Uhungarumlaut
ENCODING 219
SWIDTH 720 0
DWIDTH 27 0
BBX 27 34 6 0
BITMAP
00063000
00077000
00077000
000E7000
000CE000
000CC000
00188000
00000000
FFE03FE0
FFC03FE0
1E000700
1E000600
1C000600
1C000E00
3C000C00
3C000C00
38000C00
38001C00
38001800
78001800
70001800
70003800
70003000
F0003000
E0003000
E0007000
E0006000
E0006000
F000C000
F001C000
78038000
3E0F0000
1FFE0000
07F80000
ENDCHAR

STARTCHAR Udieresis
ENCODING 220
SWIDTH 720 0
DWIDTH 27 0
BBX 27 32 6 0
BITMAP
001C7000
003CF000
003CF000
0038E000
00000000
00000000
FFC03FE0
FFC07FC0
1E000E00
1C000E00
1C000C00
1C000C00
3C000C00
38001C00
38001800
38001800
38001800
78003800
70003000
70003000
70003000
F0003000
E0006000
E0006000
E0006000
E000E000
E000C000
F0018000
78078000
3E1F0000
1FFC0000
07F00000
ENDCHAR

STARTCHAR Yacute
ENCODING 221
SWIDTH 660 0
DWIDTH 25 0
BBX 25 33 6 0
BITMAP
0000C000
0001E000
0003E000
0007C000
001F0000
00080000
00000000
FF80FF80
FF80FF80
3C003C00
1C003800
1E007000
1E00E000
0E00C000
0F018000
07038000
07870000
078E0000
038C0000
03D80000
01F00000
01F00000
00E00000
01E00000
01E00000
01C00000
01C00000
01C00000
03C00000
03800000
07C00000
3FF00000
3FF00000
ENDCHAR

STARTCHAR Tcommaaccent
ENCODING 222
SWIDTH 600 0
DWIDTH 23 0
BBX 24 36 4 -9
BITMAP
0C0006
0FFFFE
1FFFFE
1E1E1E
381C0E
301C06
603C06
E03C03
203800
003800
003800
007800
007000
007000
007000
00F000
00F000
00E000
00E000
00E000
01E000
01C000
01C000
01C000
03C000
1FF800
3FF800
000000
000000
070000
078000
078000
018000
030000
0E0000
040000
ENDCHAR

STARTCHAR germandbls
ENCODING 223
SWIDTH 620 0
DWIDTH 24 0
BBX 29 34 -5 -6
BITMAP
00003F00
0000FFC0
0001E0E0
00038070
00038070
00070070
00070070
000707E0
000E1F00
000E3800
007E3000
00FE3800
000C3800
001C3C00
001C1F00
001C0FC0
001C03E0
003800F0
00380078
00380078
00380038
00300038
00700038
00770070
00778070
0073C1E0
00E1FF80
00E07E00
00E00000
00C00000
21C00000
F3800000
FF000000
7C000000
ENDCHAR

STARTCHAR racute
ENCODING 224
SWIDTH 400 0
DWIDTH 15 0
BBX 15 26 4 0
BITMAP
0006
001E
003E
007C
00F0
0080
0000
0000
0E3C
FE7E
FEFE
1DC4
1F00
1F00
1E00
3C00
3C00
3800
3800
3800
7800
7000
7000
7000
E000
E000
ENDCHAR

STARTCHAR aacute
ENCODING 225
SWIDTH 620 0
DWIDTH 24 0
BBX 22 26 4 0
BITMAP
000080
0003C0
0007C0
000F80
001E00
001800
000000
000000
01F860
07FEE0
0F03E0
1E01E0
3C01C0
3801C0
7801C0
7003C0
F00380
E00380
E00780
E00F80
E00F00
E01B00
F0370C
78E718
3FC3F0
1F01C0
ENDCHAR

STARTCHAR acircumflex
ENCODING 226
SWIDTH 620 0
DWIDTH 24 0
BBX 22 25 4 0
BITMAP
000400
001F00
007F80
00E0E0
000000
000000
000000
01F860
07FEE0
0F03E0
1E00E0
3C01C0
3801C0
7801C0
7003C0
F00380
E00380
E00780
E00F80
E00F00
E01B00
F0370C
78E718
3FC3F0
1F01C0
ENDCHAR

STARTCHAR abreve
ENCODING 227
SWIDTH 620 0
DWIDTH 24 0
BBX 22 25 4 0
BITMAP
006030
003FE0
001FE0
000F80
000000
000000
000000
01F860
07FEE0
0F03E0
1E00E0
3C01C0
3801C0
7801C0
7003C0
F00380
E00380
E00780
E00F80
E00F00
E01B00
F0370C
78E718
3FC3F0
1F01C0
ENDCHAR

STARTCHAR adieresis
ENCODING 228
SWIDTH 620 0
DWIDTH 24 0
BBX 22 25 4 0
BITMAP
0038E0
0079E0
0079E0
0071C0
000000
000000
000000
00F860
07FE60
0F83E0
1E00E0
3C01C0
3801C0
7801C0
7001C0
F00380
F00380
E00780
E00780
E00B00
E01B00
F0370C
78E718
3FC3F0
1F01C0
ENDCHAR

STARTCHAR lacute
ENCODING 229
SWIDTH 280 0
DWIDTH 11 0
BBX 11 33 4 0
BITMAP
00C0
03E0
07C0
1F00
0800
0100
1F00
7F00
0700
0E00
0E00
0E00
0E00
1E00
1C00
1C00
1C00
1C00
3800
3800
3800
3800
7800
7000
7000
7000
7000
E000
E000
E180
E300
FE00
3800
ENDCHAR

STARTCHAR cacute
ENCODING 230
SWIDTH 480 0
DWIDTH 18 0
BBX 17 26 3 0
BITMAP
000180
000380
000780
000F00
003E00
003000
000000
000000
00FC00
03FF00
0F8780
1E0380
3C0380
380380
780100
F00000
F00000
E00000
E00000
E00000
E00000
F00380
700700
7C3C00
3FF800
0FC000
ENDCHAR

STARTCHAR ccedilla
ENCODING 231
SWIDTH 480 0
DWIDTH 18 0
BBX 17 24 3 -6
BITMAP
00FC00
03FF00
0F0780
1E0380
3C0380
780380
780100
F00000
F00000
E00000
E00000
E00000
E00000
F00380
700700
7C3C00
3FF000
0FC000
060000
078000
00C000
10C000
19C000
0F0000
ENDCHAR

STARTCHAR ccaron
ENCODING 232
SWIDTH 480 0
DWIDTH 18 0
BBX 18 25 3 0
BITMAP
0180C0
00F3C0
007F00
001C00
000000
000000
000000
00FC00
03FF00
0F8780
1E0380
3C0380
380380
780100
F00000
F00000
E00000
E00000
E00000
E00000
F00380
700700
7C3C00
3FF800
0FC000
ENDCHAR

STARTCHAR eacute
ENCODING 233
SWIDTH 540 0
DWIDTH 21 0
BBX 18 26 4 0
BITMAP
000080
0003C0
0007C0
000F80
003E00
001800
000000
000000
007E00
03FF80
0783C0
1E01C0
3C01C0
3801C0
780380
701F00
F3FC00
FFC000
E00000
E00000
E00000
F00180
780700
7C1E00
3FF800
0FC000
ENDCHAR

STARTCHAR eogonek
ENCODING 234
SWIDTH 540 0
DWIDTH 21 0
BBX 18 24 4 -6
BITMAP
007E00
03FF80
0783C0
1E01C0
3C01C0
3801C0
780380
701F00
F3FC00
FFC000
E00000
E00000
F00000
F00180
780700
7C1E00
3FF800
0FC000
018000
030000
060000
060000
070000
03C000
ENDCHAR

STARTCHAR edieresis
ENCODING 235
SWIDTH 540 0
DWIDTH 21 0
BBX 19 25 4 0
BITMAP
0038E0
0079E0
0079E0
0071C0
000000
000000
000000
007E00
03FF80
0783C0
1E01C0
3C01C0
3801C0
780380
F01F00
F3FC00
FFC000
E00000
E00000
E00000
F00180
780700
7C1E00
3FF800
0FC000
ENDCHAR

STARTCHAR ecaron
ENCODING 236
SWIDTH 540 0
DWIDTH 21 0
BBX 20 25 4 0
BITMAP
00C030
0079E0
003F80
000E00
000000
000000
000000
007E00
03FF80
0783C0
1E01C0
3C01C0
3801C0
780380
701F00
F3FC00
FFC000
E00000
E00000
E00000
F00180
780700
7C1E00
3FF800
0FC000
ENDCHAR

STARTCHAR iacute
ENCODING 237
SWIDTH 280 0
DWIDTH 11 0
BBX 11 26 4 0
BITMAP
0040
00E0
01E0
03E0
0780
0C00
0000
0000
0E00
FC00
FC00
1C00
1C00
3800
3800
3800
7800
7000
7000
7000
F000
E000
E180
E300
7E00
3800
ENDCHAR

STARTCHAR icircumflex
ENCODING 238
SWIDTH 280 0
DWIDTH 11 0
BBX 13 25 4 0
BITMAP
0180
03C0
0FF0
3838
0000
0000
0000
0E00
FC00
FC00
1C00
1C00
3800
3800
3800
7800
7000
7000
7000
F000
E000
E180
E300
7E00
3800
ENDCHAR

STARTCHAR dcaron
ENCODING 239
SWIDTH 711 0
DWIDTH 27 0
BBX 27 27 4 0
BITMAP
000018C0
0000F9E0
0003F9E0
000038E0
00007060
000070C0
000071C0
00007300
00006600
00F8E000
07FEE000
0F03E000
1E00E000
3C01C000
3801C000
7801C000
7003C000
F0038000
E0038000
E0078000
E0078000
E00F8000
E01B0000
F0370C00
78E71800
3FC3F000
1F01C000
ENDCHAR

STARTCHAR dcroat
ENCODING 240
SWIDTH 640 0
DWIDTH 24 0
BBX 24 27 4 0
BITMAP
000018
0001F8
0003F8
000038
000070
001FFF
001FFE
000070
000070
01F8E0
07FEE0
0F03E0
1E00E0
3C01C0
3801C0
7801C0
7003C0
F00380
E00380
E00780
E00780
E00F80
E01B00
F0370C
78E718
3FC3F0
1F01C0
ENDCHAR

STARTCHAR nacute
ENCODING 241
SWIDTH 620 0
DWIDTH 24 0
BBX 22 26 4 0
BITMAP
000180
0003C0
0007C0
000F80
003E00
001000
000000
000000
0E1F00
FE7F80
FCE3C0
1D81C0
1F01C0
1F01C0
3E03C0
3C0380
3C0380
380380
780380
700300
700700
700700
70070C
E00718
E003F0
E001C0
ENDCHAR

STARTCHAR ncaron
ENCODING 242
SWIDTH 620 0
DWIDTH 24 0
BBX 22 25 4 0
BITMAP
006070
0079E0
001F80
000E00
000000
000000
000000
0E1F00
FE7F80
FCE3C0
1D81C0
1F01C0
1F01C0
3E03C0
3C0380
3C0380
380380
780380
700300
700700
700700
70070C
E00718
E003F0
E001C0
ENDCHAR

STARTCHAR oacute
ENCODING 243
SWIDTH 540 0
DWIDTH 21 0
BBX 18 26 3 0
BITMAP
000200
000700
000F00
001F00
007C00
006000
000000
000000
00FC00
07FE00
0F0780
1C0380
3803C0
7801C0
7001C0
F001C0
F001C0
E003C0
E003C0
E00380
E00780
F00F00
700E00
383C00
1FF800
07C000
ENDCHAR

STARTCHAR ocircumflex
ENCODING 244
SWIDTH 540 0
DWIDTH 21 0
BBX 18 25 3 0
BITMAP
000C00
003E00
007F80
01C1C0
000000
000000
000000
00FC00
07FE00
0F0780
1C0380
3803C0
7801C0
7001C0
F001C0
F001C0
E003C0
E003C0
E00380
E00780
F00F00
700E00
383C00
1FF800
07C000
ENDCHAR

STARTCHAR ohungarumlaut
ENCODING 245
SWIDTH 540 0
DWIDTH 21 0
BBX 19 27 3 0
BITMAP
0008C0
001CE0
001DC0
0039C0
003980
003100
002300
000000
000000
00FC00
07FE00
0F0780
1C0380
3803C0
7801C0
7001C0
F001C0
F001C0
E003C0
E003C0
E00380
E00780
F00F00
700E00
383C00
1FF800
07C000
ENDCHAR

STARTCHAR odieresis
ENCODING 246
SWIDTH 540 0
DWIDTH 21 0
BBX 17 25 4 0
BITMAP
00E380
01E780
01E780
01C700
000000
000000
000000
01F800
07FE00
0E0F00
1C0700
380780
780380
700380
F00380
E00380
E00780
E00780
E00700
E00F00
F00E00
701C00
387800
1FF000
07C000
ENDCHAR

STARTCHAR divide
ENCODING 247
SWIDTH 600 0
DWIDTH 23 0
BBX 18 16 5 5
BITMAP
00C000
01E000
01E000
00C000
000000
000000
000000
FFFFC0
FFFFC0
000000
000000
000000
00C000
01E000
01E000
00C000
ENDCHAR

STARTCHAR rcaron
ENCODING 248
SWIDTH 400 0
DWIDTH 15 0
BBX 18 25 4 0
BITMAP
0180C0
00F780
007E00
001800
000000
000000
000000
0E3C00
FE7E00
FEFE00
1DC400
1F0000
1F0000
1E0000
3C0000
3C0000
380000
380000
380000
780000
700000
700000
700000
E00000
E00000
ENDCHAR

STARTCHAR uring
ENCODING 249
SWIDTH 620 0
DWIDTH 24 0
BBX 22 27 4 0
BITMAP
003E00
006300
004100
004100
006100
002300
003E00
000000
000000
060000
1E00E0
FC00E0
1C00E0
1C01C0
1C01C0
1801C0
3803C0
380380
380380
380780
700F80
700F00
701B00
70770C
70E718
7FC7F0
1F01C0
ENDCHAR

STARTCHAR uacute
ENCODING 250
SWIDTH 620 0
DWIDTH 24 0
BBX 22 25 3 0
BITMAP
0001C0
0003C0
0007C0
000F00
001800
000000
000000
060000
1E00E0
FE00E0
0E00E0
1C01C0
1C01C0
1C01C0
1C03C0
380380
380380
380780
380F80
700F00
701B00
70370C
78E718
3FC7F0
1F01C0
ENDCHAR

STARTCHAR uhungarumlaut
ENCODING 251
SWIDTH 620 0
DWIDTH 24 0
BBX 22 27 3 0
BITMAP
001080
0039C0
003BC0
003B80
007300
006300
004600
000000
000000
060000
1E00E0
FE00E0
0E00E0
1C01C0
1C01C0
1C01C0
1C03C0
380380
380380
380780
380F80
700F00
701B00
70370C
78E718
3FC7F0
1F01C0
ENDCHAR

STARTCHAR udieresis
ENCODING 252
SWIDTH 620 0
DWIDTH 24 0
BBX 22 25 4 0
BITMAP
0038E0
007DF0
007DF0
0038E0
000000
000000
000000
060000
1E00E0
FE00E0
0E00E0
1C01C0
1C01C0
1C01C0
1C03C0
380380
380380
380780
380F80
700F00
701B00
70370C
78E718
3FC7F0
1F01C0
ENDCHAR

STARTCHAR yacute
ENCODING 253
SWIDTH 600 0
DWIDTH 23 0
BBX 21 33 3 -8
BITMAP
0001E0
0003E0
0007C0
000F80
000C00
000000
000000
030000
0F0078
7F0070
060070
0E0070
0E00F0
0E00E0
0E00E0
1C01E0
1C01E0
1C03C0
1C03C0
3807C0
380DC0
381B80
3C7380
1FE380
0F8380
000700
000700
000F00
E00E00
E01C00
F07800
7FF000
1F8000
ENDCHAR

STARTCHAR tcommaaccent
ENCODING 254
SWIDTH 340 0
DWIDTH 13 0
BBX 12 32 4 -8
BITMAP
0180
0300
0300
0700
0E00
1E00
7FF0
FFF0
0E00
1C00
1C00
1C00
1C00
3800
3800
3800
3800
3800
7000
7020
70E0
71C0
3F80
1E00
0000
7000
7800
7800
1800
3000
E000
4000
ENDCHAR

STARTCHAR dotaccent
ENCODING 255
SWIDTH 260 0
DWIDTH 10 0
BBX 4 4 8 21
BITMAP
70
F0
F0
E0
ENDCHAR
ENDFONT
